<?xml version="1.0" encoding="UTF-8" standalone="no"?>
<svg
   xmlns:dc="http://purl.org/dc/elements/1.1/"
   xmlns:cc="http://creativecommons.org/ns#"
   xmlns:rdf="http://www.w3.org/1999/02/22-rdf-syntax-ns#"
   xmlns:svg="http://www.w3.org/2000/svg"
   xmlns="http://www.w3.org/2000/svg"
   xmlns:sodipodi="http://sodipodi.sourceforge.net/DTD/sodipodi-0.dtd"
   xmlns:inkscape="http://www.inkscape.org/namespaces/inkscape"
   version="1.1"
   id="Layer_1"
   x="0px"
   y="0px"
   width="64"
   height="64"
   viewBox="0 0 63.999998 63.999998"
   enable-background="new 0 0 86.996 70.496"
   xml:space="preserve"
   sodipodi:docname="NS.svg"
   inkscape:version="1.0.1 (3bc2e813f5, 2020-09-07)"><metadata
   id="metadata15"><rdf:RDF><cc:Work
       rdf:about=""><dc:format>image/svg+xml</dc:format><dc:type
         rdf:resource="http://purl.org/dc/dcmitype/StillImage" /><dc:title></dc:title></cc:Work></rdf:RDF></metadata><defs
   id="defs13" /><sodipodi:namedview
   pagecolor="#ffffff"
   bordercolor="#666666"
   borderopacity="1"
   objecttolerance="10"
   gridtolerance="10"
   guidetolerance="10"
   inkscape:pageopacity="0"
   inkscape:pageshadow="2"
   inkscape:window-width="2615"
   inkscape:window-height="1593"
   id="namedview11"
   showgrid="false"
   inkscape:zoom="9.7207685"
   inkscape:cx="1.2797444"
   inkscape:cy="12.821803"
   inkscape:window-x="0"
   inkscape:window-y="0"
   inkscape:window-maximized="0"
   inkscape:current-layer="Layer_1" />
<path
   fill-rule="evenodd"
   clip-rule="evenodd"
   fill="#8c1c1c"
   d="M 61.107746,20.654299 C 61.185746,20.849299 61.248746,21.051299 61.304746,21.261299 61.335746,21.384299 60.542746,23.454299 60.210746,23.574299 58.089746,24.341299 55.265746,22.036299 53.216746,23.425299 52.882746,23.673299 52.411746,24.664299 52.862746,25.293299 52.930746,25.387299 52.973746,25.496299 53.034746,25.594299 55.987746,30.494299 63.475746,28.660299 63.716746,35.224299 64.083746,45.231299 39.361746,48.681299 36.952746,38.503299 36.901746,38.288299 38.411746,35.189299 38.759746,35.249299 41.118746,35.669299 43.298746,37.409299 45.532746,36.489299 45.612746,36.456299 45.895746,36.335299 46.120746,35.766299 46.237746,35.471299 46.261746,34.804299 46.188746,34.419299 46.170746,34.335299 46.151746,34.265299 46.125746,34.214299 46.117746,34.198299 46.107746,34.181299 46.100746,34.163299 46.063746,34.091299 46.024746,34.018299 45.985746,33.948299 43.329746,29.184299 36.182746,30.577299 36.913746,23.309299 37.685746,15.627299 58.069746,12.851299 61.107746,20.654299 Z"
   id="path2" />
<path
   fill-rule="evenodd"
   clip-rule="evenodd"
   fill="#124568"
   d="M 10.608746,36.637299 C 8.2237462,36.768299 9.362746,41.691299 9.135746,43.306299 9.020746,43.650299 8.5537462,43.861299 8.4017462,43.867299 6.9817462,43.918299 6.1817463,44.055299 1.5197463,43.830299 1.3547463,43.824299 1.0797463,43.430299 1.0667463,43.203299 0.90474633,40.192299 1.0837463,22.565299 1.1217463,18.838299 1.1237463,18.777299 1.3707463,18.359299 1.5467463,18.203299 1.5877463,18.166299 1.7507463,18.145299 1.8067463,18.145299 3.2847463,18.155299 8.2767462,18.191299 8.8257462,18.298299 14.686746,19.489299 18.356746,24.216299 24.013746,25.466299 25.558746,24.646299 24.755746,20.264299 25.042746,18.681299 25.048746,18.447299 25.327746,18.172299 25.440746,18.172299 27.454746,18.172299 30.083746,18.172299 32.144746,18.172299 32.339746,18.172299 32.710746,18.565299 32.708746,18.774299 32.685746,25.944299 33.181746,42.803299 32.577746,43.496299 32.413746,44.234299 27.108746,44.361299 24.832746,43.889299"
   id="path4" />
<path
   fill-rule="evenodd"
   clip-rule="evenodd"
   d="M 146.438,41.978"
   id="path6" />
<path
   fill-rule="evenodd"
   clip-rule="evenodd"
   d="M 165.293,30.639"
   id="path8" />
</svg>
