<?xml version="1.0" encoding="UTF-8" standalone="no"?>
<svg
   xmlns:dc="http://purl.org/dc/elements/1.1/"
   xmlns:cc="http://creativecommons.org/ns#"
   xmlns:rdf="http://www.w3.org/1999/02/22-rdf-syntax-ns#"
   xmlns:svg="http://www.w3.org/2000/svg"
   xmlns="http://www.w3.org/2000/svg"
   xmlns:sodipodi="http://sodipodi.sourceforge.net/DTD/sodipodi-0.dtd"
   xmlns:inkscape="http://www.inkscape.org/namespaces/inkscape"
   version="1.1"
   id="Layer_1"
   x="0px"
   y="0px"
   viewBox="0 0 841.89 129.491"
   enable-background="new 0 0 841.89 178.491"
   xml:space="preserve"
   sodipodi:docname="maastik.svg"
   inkscape:version="1.0.1 (3bc2e813f5, 2020-09-07)"><metadata
   id="metadata74"><rdf:RDF><cc:Work
       rdf:about=""><dc:format>image/svg+xml</dc:format><dc:type
         rdf:resource="http://purl.org/dc/dcmitype/StillImage" /><dc:title></dc:title></cc:Work></rdf:RDF></metadata><defs
   id="defs72" /><sodipodi:namedview
   pagecolor="#ffffff"
   bordercolor="#666666"
   borderopacity="1"
   objecttolerance="10"
   gridtolerance="10"
   guidetolerance="10"
   inkscape:pageopacity="0"
   inkscape:pageshadow="2"
   inkscape:window-width="2405"
   inkscape:window-height="1322"
   id="namedview70"
   showgrid="false"
   inkscape:zoom="1.8240573"
   inkscape:cx="420.94501"
   inkscape:cy="89.245499"
   inkscape:window-x="0"
   inkscape:window-y="0"
   inkscape:window-maximized="0"
   inkscape:current-layer="Layer_1" />
<g
   id="g67"
   transform="translate(0.001,-13.522366)">
	<g
   opacity="0.85"
   id="g65">
		<linearGradient
   id="SVGID_1_"
   gradientUnits="userSpaceOnUse"
   x1="56.484901"
   y1="160.3022"
   x2="66.523399"
   y2="160.3022">
			<stop
   offset="0"
   style="stop-color:#000023"
   id="stop2" />
			<stop
   offset="1"
   style="stop-color:#8DC63F"
   id="stop4" />
		</linearGradient>
		<path
   fill="url(#SVGID_1_)"
   d="M 56.485,161.826 C 60.52,161.871 63.136,161.689 66.524,161.555 64.87,161.156 63.166,160.298 61.441,158.964 59.456,158.131 58.26,160.186 56.485,161.826 Z"
   id="path7"
   style="fill:url(#SVGID_1_)" />
		<linearGradient
   id="SVGID_2_"
   gradientUnits="userSpaceOnUse"
   x1="75.332497"
   y1="160.3091"
   x2="78.298302"
   y2="160.3091">
			<stop
   offset="0"
   style="stop-color:#000023"
   id="stop9" />
			<stop
   offset="1"
   style="stop-color:#8DC63F"
   id="stop11" />
		</linearGradient>
		<path
   fill="url(#SVGID_2_)"
   d="M 75.333,160.875 77.009,160.712 C 77.472,160.391 77.912,160.07 78.299,159.743 77.326,160.16 76.327,160.538 75.333,160.875 Z"
   id="path14"
   style="fill:url(#SVGID_2_)" />
		<linearGradient
   id="SVGID_3_"
   gradientUnits="userSpaceOnUse"
   x1="82.930702"
   y1="156.8228"
   x2="90.927696"
   y2="156.8228">
			<stop
   offset="0"
   style="stop-color:#000023"
   id="stop16" />
			<stop
   offset="1"
   style="stop-color:#8DC63F"
   id="stop18" />
		</linearGradient>
		<path
   fill="url(#SVGID_3_)"
   d="M 90.928,155.824 C 88.041,155.961 85.448,156.791 82.931,157.77 85.373,157.998 88.06,157.475 90.928,155.824 Z"
   id="path21"
   style="fill:url(#SVGID_3_)" />
		<linearGradient
   id="SVGID_4_"
   gradientUnits="userSpaceOnUse"
   x1="77.896004"
   y1="157.9751"
   x2="82.930702"
   y2="157.9751">
			<stop
   offset="0"
   style="stop-color:#000023"
   id="stop23" />
			<stop
   offset="1"
   style="stop-color:#8DC63F"
   id="stop25" />
		</linearGradient>
		<path
   fill="url(#SVGID_4_)"
   d="M 77.896,156.208 C 79.098,157.298 79.843,158.516 78.363,159.708 L 78.299,159.744 C 79.861,159.123 81.343,158.381 82.931,157.77 81.104,157.594 79.422,157.091 77.896,156.208 Z"
   id="path28"
   style="fill:url(#SVGID_4_)" />
		<linearGradient
   id="SVGID_5_"
   gradientUnits="userSpaceOnUse"
   x1="74.423302"
   y1="154.92821"
   x2="77.896004"
   y2="154.92821">
			<stop
   offset="0"
   style="stop-color:#000023"
   id="stop30" />
			<stop
   offset="1"
   style="stop-color:#8DC63F"
   id="stop32" />
		</linearGradient>
		<path
   fill="url(#SVGID_5_)"
   d="M 77.896,156.208 C 76.729,155.16 75.044,154.264 74.423,153.65 75.456,154.623 76.622,155.492 77.896,156.208 Z"
   id="path35"
   style="fill:url(#SVGID_5_)" />
		<linearGradient
   id="SVGID_6_"
   gradientUnits="userSpaceOnUse"
   x1="46.8032"
   y1="122.6118"
   x2="123.0522"
   y2="122.6118">
			<stop
   offset="0"
   style="stop-color:#000023"
   id="stop37" />
			<stop
   offset="1"
   style="stop-color:#8DC63F"
   id="stop39" />
		</linearGradient>
		<path
   fill="url(#SVGID_6_)"
   d="M 76.014,126.171 C 77.202,124.989 78.586,133.359 81.026,130.969 87.154,127.301 91.739,122.259 97.888,120.645 100.129,118.061 107.378,125.851 109.718,123.184 115.752,119.004 129.579,102.821 119.452,106.447 104.497,112.273 95.616,117.241 82.894,121.64 73.552,127.145 62.653,132.955 53.721,136.024 51.175,136.318 48.899,135.364 46.804,134.367 49.437,136.159 52.483,137.95 56.348,139.056 61.826,141.121 68.047,129.595 76.014,126.171 Z"
   id="path42"
   style="fill:url(#SVGID_6_)" />
		<linearGradient
   id="SVGID_7_"
   gradientUnits="userSpaceOnUse"
   x1="0"
   y1="131.188"
   x2="16.528299"
   y2="131.188">
			<stop
   offset="0"
   style="stop-color:#000023"
   id="stop44" />
			<stop
   offset="1"
   style="stop-color:#8DC63F"
   id="stop46" />
		</linearGradient>
		<path
   fill="url(#SVGID_7_)"
   d="M 0.006,126.354 C 0.006,126.354 1.113,126.67 1.112,126.667 1.047,135.792 8.779,139.727 16.409,142.193 16.401,140.426 16.46,138.637 16.527,136.898 12.997,134.761 10.924,136.085 12.626,139.939 9.476,131.141 5.406,125.437 -0.001,120.184 Z"
   id="path49"
   style="fill:url(#SVGID_7_)" />
		<linearGradient
   id="SVGID_8_"
   gradientUnits="userSpaceOnUse"
   x1="104.6851"
   y1="76.9702"
   x2="842.03223"
   y2="76.9702">
			<stop
   offset="0"
   style="stop-color:#000023"
   id="stop51" />
			<stop
   offset="1"
   style="stop-color:#8DC63F"
   id="stop53" />
		</linearGradient>
		<path
   fill="url(#SVGID_8_)"
   d="M 121.044,139.167 C 140.743,133.02 159.008,127.245 177.607,124.03 178.596,122.104 179.116,120.02 181.262,120.544 183.056,121.641 184.723,122.215 186.298,122.483 L 194.428,121.209 197.109,119.962 197.176,119.904 C 198.473,118.649 197.74,117.467 196.528,116.446 195.281,115.794 194.083,114.969 193.008,114.057 193.695,114.638 195.342,115.451 196.528,116.446 198.04,117.222 199.644,117.788 201.405,117.925 203.753,116.927 206.269,116.122 209.031,116.082 206.276,117.641 203.737,118.138 201.405,117.925 199.921,118.567 198.512,119.256 197.11,119.961 L 195.975,120.985 C 202.198,120.095 208.381,119.258 214.603,118.6 215.969,118.129 217.282,117.7 218.326,117.224 222.544,115.285 226.826,113.482 230.305,117.047 L 233.649,116.758 C 233.399,116.529 233.136,116.365 232.881,116.111 233.415,116.28 233.88,116.492 234.261,116.703 238.97,116.346 243.678,115.934 248.433,115.653 251.209,113.648 254.031,111.209 256.997,109.585 256.997,109.585 259.539,112.088 260.783,113.341 261.747,111.083 263.371,109.457 265.415,108.467 262.511,106.301 259.782,103.846 257.35,102.42 253.506,98.649 251.562,111.814 246.57,104.457 251.562,111.813 253.507,98.648 257.35,102.42 259.783,103.846 262.512,106.301 265.415,108.467 269.653,106.383 275.663,107.18 280.839,110.696 275.554,114.952 270.268,112.098 265.415,108.467 263.372,109.457 261.747,111.083 260.783,113.341 259.539,112.088 256.997,109.585 256.997,109.585 254.031,111.209 251.209,113.648 248.433,115.653 257.697,115.045 267.055,114.53 276.639,114.09 338.085,112.082 490.194,126.917 485.555,114.177 495.491,113.972 450.25,99.24 475.361,98.161 511.797,96.598 553.105,93.2 567.051,85.33 619.535,91.888 568.13,102.287 576.567,102.303 614.146,108.056 637.588,86.159 652.246,91.285 659.146,93.654 666.043,99.362 667.003,102.403 667.722,104.681 661.066,105.919 660.575,108.24 659.1,115.212 658.542,120.03 679.047,122.207 712.098,126.17 711.903,119.112 745.985,129.407 772.426,136.638 818.599,141.13 841.892,140.317 842.212,140.174 841.892,81.903 841.892,74.363 819.526,61.195 787.372,63.679 787.023,64.238 783.299,70.183 751.606,56.009 732.376,40.39 712.134,35.563 719.43,38.589 696.925,38.536 L 663.862,39.457 C 658,39.525 642.747,38.789 637.39,38.373 627.28,37.562 616.164,35.147 605.328,30.599 594.433,26.049 581.21,24.442 565.187,21.047 554.879,17.952 543.735,15.555 531.683,14.339 525.686,13.694 519.347,13.51 512.974,13.523 504.579,13.865 498.126,14.631 491.582,15.757 479.012,18.012 469.112,21.062 461.049,23.484 453.028,25.984 447.834,27.504 439.101,29.768 407.628,38.031 373.41,45.409 336.584,47.825 316.249,49.888 298.957,59.513 282.11,65.782 269.608,68.664 255.361,66.314 244.885,67.827 228.452,70.235 214.716,75.524 201.973,81.692 216.758,77.377 227.431,73.324 244.097,69.622 255.235,67.524 237.967,81.403 231.086,84.955 228.286,87.281 221.648,78.892 218.804,81.292 211.905,82.471 206.3,87.331 199.467,91.102 196.726,93.565 195.277,85.212 193.891,86.445 184.162,90.344 179.099,102.623 172.243,101.844 167.12,101.694 162.452,101.597 157.857,101.369 155.129,101.527 151.613,102.187 149.18,103.201 L 144.508,106.782 C 146.732,108.84 148.216,111.712 149.664,114.622 146.971,114.919 142.81,114.197 140.145,114.516 142.811,114.198 146.971,114.919 149.664,114.622 148.216,111.712 146.731,108.84 144.508,106.782 133.252,115.29 120.74,124.011 108.642,131.205 L 109.045,131.876 C 116.494,128.895 124.237,127.337 133.967,129.771 129.881,129.059 129.558,126.695 133.369,125.006 L 137.78,128.094 C 131.628,132.463 125.442,136.883 116.985,132.979 116.988,132.988 114.609,135.65 113.421,136.977 110.867,136.484 110.178,133.911 109.046,131.876 107.588,132.452 106.137,133.084 104.687,133.769 109.086,137.002 121.04,139.182 121.044,139.167 Z"
   id="path56"
   style="fill:url(#SVGID_8_)" />
		<linearGradient
   id="SVGID_9_"
   gradientUnits="userSpaceOnUse"
   x1="197.9541"
   y1="118.4048"
   x2="213.65089"
   y2="118.4048">
			<stop
   offset="0"
   style="stop-color:#000023"
   id="stop58" />
			<stop
   offset="1"
   style="stop-color:#8DC63F"
   id="stop60" />
		</linearGradient>
		<path
   fill="url(#SVGID_9_)"
   d="M 201.64,118.893 C 200.616,119.377 199.324,119.825 197.954,120.309 203.187,119.688 208.387,118.972 213.651,118.461 210.086,114.904 205.845,116.898 201.64,118.893 Z"
   id="path63"
   style="fill:url(#SVGID_9_)" />
	</g>
</g>
</svg>
