<?xml version="1.0" encoding="utf-8"?>
<!-- Generator: Adobe Illustrator 14.0.0, SVG Export Plug-In . SVG Version: 6.00 Build 43363)  -->
<!DOCTYPE svg PUBLIC "-//W3C//DTD SVG 1.1//EN" "http://www.w3.org/Graphics/SVG/1.1/DTD/svg11.dtd">
<svg version="1.1" id="Layer_1" xmlns="http://www.w3.org/2000/svg" xmlns:xlink="http://www.w3.org/1999/xlink" x="0px" y="0px"
	 viewBox="0 0 309 69" enable-background="new 0 0 309 69" xml:space="preserve">
<path fill-rule="evenodd" clip-rule="evenodd" fill="#124568" d="M145.66,24.218c0.004-0.15,0.348-0.446,0.519-0.446
	c3.268,0,7.585,0,10.85,0c0.163,0,0.478,0.388,0.476,0.583c-0.076,7.147-0.188,17.866-0.101,26.303
	c0.001,0.162-0.306,0.66-0.835,0.769c-2.381,0.49-9.104,1.085-10.633-0.821c-0.225-0.279-0.374-0.62-0.424-1.029
	c-18.928,12.261-22.109-27.419-0.018-16.122C145.573,29.763,145.577,26.841,145.66,24.218z M143.581,45.322
	c2.966-1.494,2.826-8.185-1.706-7.554c-2.678,0.931-3.408,6.964,0.414,7.671C142.543,45.485,143.434,45.398,143.581,45.322z"/>
<path fill-rule="evenodd" clip-rule="evenodd" fill="#8C1C1C" d="M273.418,24.62c2.64-0.681,8.309-0.64,10.951-0.274
	c0.17,0.06,0.461,0.511,0.461,0.669c0,8.29,0,16.58,0,24.869c0,0.241,0.034,1.328-0.942,1.393
	c-2.302,0.281-8.028,0.272-10.222-0.051c-0.126-0.048-0.47-0.153-0.633-0.432c-0.013-0.007-0.038-0.395-0.038-0.581
	c0-8.746,0-16.243,0.021-24.95C273.016,25.108,273.272,24.677,273.418,24.62z"/>
<path fill-rule="evenodd" clip-rule="evenodd" fill="#8C1C1C" d="M186.072,28.562c0.078,0.196,0.141,0.398,0.196,0.607
	c0.032,0.124-0.761,2.193-1.093,2.314c-2.121,0.768-4.945-1.539-6.995-0.15c-0.333,0.249-0.804,1.239-0.353,1.868
	c0.067,0.094,0.111,0.204,0.171,0.301c2.954,4.901,10.441,3.066,10.682,9.631c0.367,10.007-24.354,13.456-26.763,3.278
	c-0.051-0.215,1.459-3.314,1.807-3.253c2.359,0.419,4.538,2.159,6.773,1.24c0.08-0.034,0.362-0.155,0.588-0.724
	c0.117-0.295,0.141-0.963,0.068-1.348c-0.018-0.084-0.037-0.153-0.063-0.204c-0.009-0.017-0.018-0.034-0.026-0.051
	c-0.037-0.073-0.075-0.145-0.114-0.216c-2.656-4.764-9.803-3.371-9.073-10.638C162.65,23.535,183.035,20.759,186.072,28.562z"/>
<path fill-rule="evenodd" clip-rule="evenodd" fill="#124568" d="M47.824,43.796c-2.384,0.13-1.246,5.055-1.472,6.669
	c-0.115,0.345-0.582,0.555-0.735,0.561c-1.419,0.052-2.219,0.188-6.882-0.036c-0.165-0.007-0.44-0.401-0.453-0.628
	c-0.162-3.012,0.017-20.639,0.055-24.365c0.002-0.06,0.249-0.479,0.425-0.634c0.041-0.037,0.204-0.058,0.26-0.058
	c1.479,0.01,6.47,0.046,7.02,0.153c5.861,1.191,9.531,5.918,15.187,7.169c1.544-0.821,0.743-5.202,1.03-6.785
	c0.006-0.234,0.284-0.508,0.397-0.508c2.013,0,4.643,0,6.703,0c0.195,0,0.566,0.392,0.565,0.602
	c-0.023,7.17,0.471,24.03-0.132,24.722c-0.165,0.738-5.468,0.865-7.743,0.393"/>
<path fill-rule="evenodd" clip-rule="evenodd" fill="#8C1C1C" d="M191.353,36.874c-0.044-0.349-0.013-3.703,0.039-4.686
	c0.004-0.085,0.239-0.316,0.42-0.338c0.706-0.082,1.987,0.159,2.409-0.126c2.325-1.577,4.742-3.788,6.208-4.999
	c1.099-0.077,2.498-0.015,4.003,0.014c0.21,0.004,0.632,0.46,0.632,0.683c0,1.515,0,3.027,0,4.542
	c2.859,0.06,4.226-0.039,5.898,0.021c0.307,0.012,0.819,0.264,0.812,0.521c0.147,4.118-0.015,4.523-0.688,4.754
	c-0.631,0.215-4.379-0.031-6.021,0.097c-0.266,2.852,0.082,5.649,1.019,7.294c0.145,0.254,0.767,0.774,0.912,0.794
	c2.551,0.364,4.736-0.896,5.958-0.287c0.256,0.155,0.305,0.492,0.305,0.53c0,1.267,0,2.533,0,3.799c0,0.057-0.033,0.357-0.266,0.467
	c-5.198,2.274-14.957,1.836-17.608-0.862c-2.087-2.323-0.206-8.334-1.426-11.525c-0.34-0.335-1.457-0.205-2.194-0.23
	C191.688,37.333,191.387,37.122,191.353,36.874z"/>
<path fill-rule="evenodd" clip-rule="evenodd" fill="#124568" d="M106.629,31.7c2.347-0.574,7.346-0.347,10.17-0.165
	c1.138,0.543,1.203,2.065,1.141,3.406c2.115-1.856,4.252-3.689,8.936-2.977c2.288,2.347,1.148,6.134-0.746,8.191
	c-3.11,0.628-3.516-1.446-5.956-1.489c-3.591,0.843-2.236,7.439-2.464,10.584c-0.038,0.205,0.043,0.496-0.042,0.718
	c-0.008,0.753-0.578,1.249-1.075,1.298c-1.518,0.039-7.581,0.193-10.188-0.248c-0.131-0.049-0.381-0.76-0.381-0.92
	c0-5.592,0-11.651,0-17.255C106.023,32.61,106.406,31.754,106.629,31.7z"/>
<path fill-rule="evenodd" clip-rule="evenodd" fill="#8C1C1C" d="M241.238,40.505c0.009,0.081-0.133,0.453-0.22,0.551
	c-2.268,2.514-7.629,1.933-12.414,1.927c-0.589,4.297,2.674,4.566,2.887,4.6c4.449,0.658,6.823-3.251,9.309-1.629
	c0.156,0.13,0.366,0.938,0.315,1.027c-5.043,8.783-23.191,5.187-24.425-3.252C214.82,30.956,239.351,25.107,241.238,40.505z
	 M231.531,35.562c-2.219,0.369-3.273,3.155-2.182,4.444c0.993,0,1.986,0,2.98,0c0.85-0.797,0.99-2.719,0.418-3.885
	C232.636,35.892,232.388,35.518,231.531,35.562z"/>
<path fill-rule="evenodd" clip-rule="evenodd" d="M170.535,44.07"/>
<g>
	<path fill-rule="evenodd" clip-rule="evenodd" fill="#124568" d="M86.337,35.343c-4.752,2.002-9.089,5.776-10.961,7.538
		c-0.625,0.588-1.092-0.029-1.102-0.516c-0.075-3.413,1.385-6.714,3.241-8.789c0.476-0.53,1.875-1.598,2.072-1.723
		c4.177-2.659,7.884-2.57,9.704-2.523c1.489,0.039,6.629,0.463,9.493,3.226C99.514,33.26,92.552,32.725,86.337,35.343z"/>
	<path fill-rule="evenodd" clip-rule="evenodd" fill="#124568" d="M90.37,45.889c4.766-1.967,9.129-5.712,11.014-7.459
		c0.626-0.584,1.09,0.036,1.098,0.522c0.05,3.414-1.432,6.705-3.304,8.769c-0.479,0.526-1.888,1.583-2.084,1.709
		c-4.194,2.628-7.902,2.516-9.721,2.453c-1.488-0.052-6.627-0.511-9.471-3.294C77.177,47.881,84.136,48.465,90.37,45.889z"/>
</g>
<path fill-rule="evenodd" clip-rule="evenodd" d="M189.391,32.73"/>
<path fill-rule="evenodd" clip-rule="evenodd" fill="#8C1C1C" d="M268.96,40.505c0.01,0.081-0.132,0.453-0.219,0.551
	c-2.268,2.514-7.628,1.933-12.413,1.927c-0.588,4.297,2.674,4.566,2.889,4.6c4.447,0.658,6.823-3.251,9.307-1.629
	c0.156,0.13,0.367,0.938,0.315,1.027c-5.044,8.783-23.192,5.187-24.426-3.252C242.545,30.956,267.073,25.107,268.96,40.505z
	 M259.257,35.562c-2.222,0.369-3.274,3.155-2.185,4.444c0.993,0,1.986,0,2.979,0c0.852-0.797,0.991-2.719,0.419-3.885
	C260.358,35.892,260.112,35.518,259.257,35.562z"/>
</svg>
