<?xml version="1.0" encoding="UTF-8" standalone="no"?>
<svg
   xmlns:dc="http://purl.org/dc/elements/1.1/"
   xmlns:cc="http://creativecommons.org/ns#"
   xmlns:rdf="http://www.w3.org/1999/02/22-rdf-syntax-ns#"
   xmlns:svg="http://www.w3.org/2000/svg"
   xmlns="http://www.w3.org/2000/svg"
   xmlns:sodipodi="http://sodipodi.sourceforge.net/DTD/sodipodi-0.dtd"
   xmlns:inkscape="http://www.inkscape.org/namespaces/inkscape"
   version="1.1"
   id="Layer_1"
   x="0px"
   y="0px"
   viewBox="0 0 398.99998 253"
   xml:space="preserve"
   sodipodi:docname="postmarkLandscape.svg"
   width="399"
   height="253"
   inkscape:version="1.0.1 (3bc2e813f5, 2020-09-07)"><metadata
   id="metadata267"><rdf:RDF><cc:Work
       rdf:about=""><dc:format>image/svg+xml</dc:format><dc:type
         rdf:resource="http://purl.org/dc/dcmitype/StillImage" /><dc:title /></cc:Work></rdf:RDF></metadata><defs
   id="defs265" /><sodipodi:namedview
   pagecolor="#ffffff"
   bordercolor="#666666"
   borderopacity="1"
   objecttolerance="10"
   gridtolerance="10"
   guidetolerance="10"
   inkscape:pageopacity="0"
   inkscape:pageshadow="2"
   inkscape:window-width="2722"
   inkscape:window-height="1566"
   id="namedview263"
   showgrid="false"
   inkscape:zoom="2.1642826"
   inkscape:cx="153.37482"
   inkscape:cy="150.74874"
   inkscape:window-x="0"
   inkscape:window-y="0"
   inkscape:window-maximized="0"
   inkscape:current-layer="Layer_1"
   inkscape:document-rotation="0" />
<style
   type="text/css"
   id="style2">
	.st0{fill:none;stroke:#FFFFFF;stroke-width:7;}
	.st1{fill:#FFFFFF;}
	.st2{fill:#FFFFFF;stroke:#FFFFFF;stroke-width:5.7646;}
	.st3{fill:#FFFFFF;stroke:#FFFFFF;stroke-miterlimit:10;}
</style>

<g
   id="g1227"
   transform="translate(-76.768733,-48.423355)"><g
     id="g38"
     transform="translate(-2.4335674,-3.6223782)">
	<g
   id="g12">
		<g
   id="g10">
			<path
   class="st1"
   d="M 183.17,188.53 C 189.52,184.28 196.14,179.61 199.84,172.73 200.86,170.82 200.63,167.96 198.36,167.14 195.98,166.27 193.53,168.47 192.51,170.37 190.17,174.72 185.18,177.89 181.18,180.57 179.21,181.89 177.34,184.24 178.03,186.79 178.62,188.98 181.29,189.78 183.17,188.53 Z"
   id="path8" />
		</g>
	</g>
	<g
   id="g18">
		<g
   id="g16">
			<path
   class="st1"
   d="M 192.74,174 C 196.56,180.95 201.44,188.41 209.74,190.03 214.36,190.93 218.31,182.16 212.6,181.05 206.89,179.94 203.12,172.66 200.6,168.08 198.04,163.42 190.43,169.8 192.74,174 Z"
   id="path14" />
		</g>
	</g>
	<g
   id="g24">
		<g
   id="g22">
			<path
   class="st1"
   d="M 193,173.25 C 192.96,188.31 192.06,203.35 192.5,218.41 192.63,222.68 198.39,223.92 198.25,219 197.81,203.94 198.71,188.9 198.75,173.84 198.76,169.55 193.02,168.35 193,173.25 Z"
   id="path20" />
		</g>
	</g>
	<g
   id="g30">
		<g
   id="g28">
			<path
   class="st1"
   d="M 191.79,187.15 C 190.66,188.73 189.53,190.32 188.22,191.75 188.13,191.85 187.33,192.61 187.84,192.15 187.51,192.45 187.16,192.73 186.81,193 186.5,193.23 186.86,193.04 186.29,193.35 185.81,193.61 185.31,193.83 184.8,194.03 182.63,194.9 180.94,197.85 181.46,200.15 182.04,202.68 184.54,202.86 186.55,202.05 191.35,200.12 194.64,196.02 197.56,191.94 198.8,190.21 199.87,187.36 197.87,185.7 196.05,184.18 193.02,185.43 191.79,187.15 Z"
   id="path26" />
		</g>
	</g>
	<g
   id="g36">
		<g
   id="g34">
			<path
   class="st1"
   d="M 192.09,194.6 C 197.2,196.77 201.48,200.43 206.59,202.6 208.9,203.58 211.73,202.76 213.34,200.87 214.68,199.3 215.05,196.44 212.75,195.47 207.64,193.3 203.36,189.64 198.25,187.47 195.94,186.49 193.11,187.31 191.5,189.2 190.17,190.76 189.79,193.62 192.09,194.6 Z"
   id="path32" />
		</g>
	</g>
</g><g
     id="g44"
     transform="translate(-2.4335674,-3.6223782)">
	<g
   id="g42">
		<path
   class="st1"
   d="M 233.44,138.12 C 235.4,157.84 236.41,177.63 236.44,197.45 236.45,201.18 243.94,201.04 243.94,197.28 243.91,177.46 242.9,157.67 240.94,137.95 240.57,134.21 233.08,134.43 233.44,138.12 Z"
   id="path40" />
	</g>
</g><g
     id="g50"
     transform="translate(-2.4335674,-3.6223782)">
	<g
   id="g48">
		<path
   class="st1"
   d="M 236.34,138.41 C 241.18,146.31 245.96,155.01 255.11,158.41 259.68,160.11 261.99,150.4 257.28,148.65 250.53,146.14 246.59,138.43 243.05,132.65 239.79,127.35 233.79,134.25 236.34,138.41 Z"
   id="path46" />
	</g>
</g><g
     id="g56"
     transform="translate(-2.4335674,-3.6223782)">
	<g
   id="g54">
		<path
   class="st1"
   d="M 232.56,133.86 C 231.15,136.52 230.12,139.36 228.69,142.01 227.69,143.87 226.24,146.52 223.89,146.77 221.75,147 219.34,148.33 219.77,150.83 220.18,153.2 223.35,154.53 225.48,154.3 235.43,153.24 237.78,144.83 241.81,137.21 244.31,132.51 234.81,129.62 232.56,133.86 Z"
   id="path52" />
	</g>
</g><g
     id="g62"
     transform="translate(-2.4335674,-3.6223782)">
	<g
   id="g60">
		<path
   class="st1"
   d="M 236.86,160.54 C 241.26,167.04 246.71,172.93 254.4,175.34 256.79,176.09 259.52,175.12 260.99,173.08 262.17,171.44 262.37,168.49 259.97,167.74 253.55,165.74 249.18,160.96 245.51,155.54 242.71,151.38 234.09,156.44 236.86,160.54 Z"
   id="path58" />
	</g>
</g><g
     id="g68"
     transform="translate(-2.4335674,-3.6223782)">
	<g
   id="g66">
		<path
   class="st1"
   d="M 236.01,158.27 C 233.56,161.51 231.25,168.26 226.39,167.76 221.64,167.27 218.69,176.77 224,177.31 233,178.23 236.82,169.83 241.38,163.8 242.73,162.02 243.44,158.9 241.69,157.12 239.94,155.35 237.28,156.59 236.01,158.27 Z"
   id="path64" />
	</g>
</g><g
     id="g100"
     transform="translate(-2.4335674,-3.6223782)">
	<g
   id="g74">
		<g
   id="g72">
			<path
   class="st1"
   d="M 420.53,103.76 C 420.49,118.42 419.91,133.27 422.43,147.78 423.42,153.48 432.07,149.14 431.26,144.47 428.73,129.96 429.32,115.11 429.36,100.45 429.38,94.82 420.55,99.11 420.53,103.76 Z"
   id="path70" />
		</g>
	</g>
	<g
   id="g80">
		<g
   id="g78">
			<path
   class="st1"
   d="M 418.33,99.55 C 417.9,105.91 415.98,111.13 409.96,114.01 404.05,116.84 409.1,122.87 414.24,120.42 423.02,116.22 427.52,108.83 428.16,99.23 428.53,93.89 418.65,94.78 418.33,99.55 Z"
   id="path76" />
		</g>
	</g>
	<g
   id="g86">
		<g
   id="g84">
			<path
   class="st1"
   d="M 421.49,106.8 C 424.9,112.36 427.63,118.37 432.16,123.15 436.15,127.36 441.11,119.07 437.85,115.64 433.32,110.86 430.58,104.85 427.18,99.29 425.87,97.15 422.99,98.32 421.77,99.84 420.15,101.87 420.18,104.67 421.49,106.8 Z"
   id="path82" />
		</g>
	</g>
	<g
   id="g92">
		<g
   id="g90">
			<path
   class="st1"
   d="M 417.63,123.66 C 416,125.83 413.72,128.11 411.4,128.85 409.33,129.51 407.59,131.37 408.77,133.61 409.87,135.7 413.08,136.79 415.29,136.08 420.23,134.5 423.74,131.32 426.8,127.24 428.3,125.24 425.87,122.79 424.13,122.11 421.82,121.19 419.15,121.64 417.63,123.66 Z"
   id="path88" />
		</g>
	</g>
	<g
   id="g98">
		<g
   id="g96">
			<path
   class="st1"
   d="M 421.18,133.57 C 423.52,134.74 425.46,136.46 427.62,137.91 430.07,139.55 432.63,140.32 435.56,140.49 440.42,140.77 443.8,132.24 437.57,131.88 433.81,131.66 430.53,127.47 427.29,125.85 423.03,123.71 416.46,131.21 421.18,133.57 Z"
   id="path94" />
		</g>
	</g>
</g><g
     id="g106"
     transform="translate(-2.4335674,-3.6223782)">
	<g
   id="g104">
		<path
   class="st1"
   d="M 380.38,167.83 C 392.77,157.8 410.9,153.55 426.46,152.04 436.19,151.09 445.4,152.1 454.85,154.39 463.25,156.43 471.97,156.87 479.21,162.09 482.15,164.21 486.22,158.17 483.26,156.03 475.38,150.34 465.87,149.84 456.76,147.51 446.66,144.93 436.3,144.24 425.93,145.46 408.9,147.46 390.6,152.35 377.08,163.29 373.81,165.93 376.7,170.81 380.38,167.83 Z"
   id="path102" />
	</g>
</g><g
     id="g112"
     transform="translate(-2.4335674,-1.6223782)">
	<g
   id="g110">
		<path
   class="st1"
   d="M 23.25,239.81 C 29.12,215.86 54.08,202.55 75.88,195.85 86.31,192.65 97.73,190.02 108.71,190.4 125.34,190.96 141.27,197.51 154,208.11 157.33,210.88 159.94,204.08 157.22,201.81 138.13,185.91 114.57,180.34 90.38,184.75 70.48,188.37 49.97,196.25 34.86,210.04 26.72,217.47 20.6,226.74 17.96,237.5 16.94,241.62 22.07,244.6 23.25,239.81 Z"
   id="path108" />
	</g>
</g><g
     id="g118"
     transform="translate(-2.4335674,-1.6223782)">
	<g
   id="g116">
		<path
   class="st1"
   d="M 51.48,248.5 C 58.5,225 88.51,216.51 109.73,212.42 139.36,206.7 170.14,206.35 196.07,224.03 199.25,226.2 205.17,221.94 201.09,219.15 178.38,203.67 151.66,200.96 125.02,204.06 103.77,206.53 80.76,211.36 62.79,223.6 53.98,229.6 46.8,237.54 43.71,247.9 42.52,251.89 50.4,252.14 51.48,248.5 Z"
   id="path114" />
	</g>
</g><g
     id="g150"
     transform="translate(-2.4335674,-3.6223782)">
	<g
   id="g124">
		<g
   id="g122">
			<path
   class="st1"
   d="M 127.43,154.62 C 130.9,165.67 134.02,177.46 132.34,189.13 131.57,194.45 141.39,195.34 142.07,190.67 143.97,177.5 140.91,164.7 136.98,152.18 135.55,147.64 125.82,149.48 127.43,154.62 Z"
   id="path120" />
		</g>
	</g>
	<g
   id="g130">
		<g
   id="g128">
			<path
   class="st1"
   d="M 125.99,152.85 C 125.61,154.32 125.21,155.84 124.54,157.08 124.15,157.8 124,158.05 123.63,158.41 123.5,158.54 123.06,158.92 123.44,158.59 122.64,159.3 123.77,158.52 122.74,158.94 120.77,159.75 118.65,162.08 119.61,164.35 120.6,166.66 123.73,166.64 125.68,165.84 131.28,163.53 133.99,158.54 135.42,152.94 136.02,150.58 133.94,148.96 131.76,148.92 129.41,148.89 126.6,150.44 125.99,152.85 Z"
   id="path126" />
		</g>
	</g>
	<g
   id="g136">
		<g
   id="g134">
			<path
   class="st1"
   d="M 128.8,155.72 C 133.19,158.58 136.54,162.48 141.34,164.76 146.06,166.99 151.96,160.84 146.06,158.04 142.11,156.17 139.24,152.45 135.6,150.08 133.54,148.74 130.44,148.82 128.54,150.43 126.78,151.91 126.82,154.43 128.8,155.72 Z"
   id="path132" />
		</g>
	</g>
	<g
   id="g142">
		<g
   id="g140">
			<path
   class="st1"
   d="M 133.02,165.65 C 130.72,167.51 128.36,169.8 126.01,171.03 123.82,172.17 122.29,174.79 122.7,177.28 123.07,179.51 125.28,180.86 127.39,179.76 130.75,178.01 133.46,175.5 136.38,173.14 138.22,171.65 139.44,168.74 138.39,166.46 137.37,164.25 134.73,164.26 133.02,165.65 Z"
   id="path138" />
		</g>
	</g>
	<g
   id="g148">
		<g
   id="g146">
			<path
   class="st1"
   d="M 137.02,176.02 C 140.77,179.59 145.7,181.61 150.88,181.75 155.66,181.87 157.88,172.18 152.54,172.04 148.64,171.94 145.21,170.45 142.4,167.77 138.56,164.12 133.55,172.71 137.02,176.02 Z"
   id="path144" />
		</g>
	</g>
</g><path
     class="st2"
     d="M 380.68643,90.067622 C 380.68643,97.527622 374.64643,103.56762 367.18643,103.56762 359.72643,103.56762 353.68643,97.527622 353.68643,90.067622 353.68643,82.607622 359.72643,76.567622 367.18643,76.567622 374.64643,76.567622 380.68643,82.607622 380.68643,90.067622 Z"
     id="path152" /><g
     id="g166"
     transform="translate(-2.4335674,-1.6223782)">
	<g
   id="g158">
		<g
   id="g156">
			<path
   class="st1"
   d="M 51.02,243.82 C 63.22,238.6 75.81,233.86 88.97,231.75 100.82,229.85 112.69,230.23 124.52,232.16 138.47,234.44 151.77,239.07 165.49,242.31 180.23,245.78 195.25,248.06 210.39,248.58 225.28,249.1 240.14,248 254.76,245.13 268.94,242.35 282.78,238.18 296.72,234.41 311.6,230.38 326.64,226.87 342.1,226.26 357.41,225.65 372.81,226.56 387.99,228.6 405.22,230.91 421.87,235.1 438.43,240.31 453.85,245.16 469.62,249.23 485.88,249.26 488.45,249.26 490.36,246.79 489.58,244.37 488.66,241.52 485.32,240.57 482.7,240.57 467.92,240.54 453.35,236.18 439.39,231.75 424.86,227.14 410.11,223.45 395.05,221.02 364.5,216.09 333.63,215.82 303.46,223.06 274.27,230.07 246.31,240.03 215.9,240.02 200.45,240.02 184.91,238.09 169.85,234.68 155.55,231.44 141.69,226.66 127.24,224.03 114.04,221.62 100.49,220.9 87.18,222.86 72.63,225 58.74,229.94 45.26,235.71 38.8,238.45 45.98,245.97 51.02,243.82 Z"
   id="path154" />
		</g>
	</g>
	<g
   id="g164">
		<g
   id="g162">
			<path
   class="st1"
   d="M 54.24,276.74 C 111.87,259.28 169.98,277.37 228.23,280.22 242.39,280.91 256.58,280.98 270.53,278.18 281.78,275.92 292.37,271.79 302.83,267.13 314.38,261.98 325.81,256.03 337.99,252.5 352.27,248.35 367.25,247.74 382.03,248.16 417.53,249.17 453.1,252.38 487.81,260.05 492.99,261.2 498.71,251.84 492.34,250.44 460.88,243.49 429.18,240.81 397.09,239.01 382.24,238.18 367.25,237.69 352.5,239.99 338.58,242.17 325.89,247.21 313.11,252.96 302.74,257.62 292.51,262.63 281.62,266.01 268.48,270.09 255.04,271.07 241.35,270.85 211.35,270.37 181.79,265.03 152.05,261.67 118.96,257.93 85.88,257.78 53.73,267.51 48.15,269.19 47.18,278.88 54.24,276.74 Z"
   id="path160" />
		</g>
	</g>
</g><g
     id="g172"
     transform="translate(-2.4335674,-3.6223782)">
	<g
   id="g170">
		<path
   class="st1"
   d="M 483.89,211.2 C 478.33,203.4 470.04,198.59 461.8,194.05 451.8,188.54 441.52,183.65 430.87,179.52 409.7,171.29 387.59,165.72 365.2,162.02 355.94,160.49 346.66,159.16 337.4,157.6 328.16,156.05 318.61,154.65 309.22,155.49 300.76,156.24 292.38,158.88 286.29,164.97 278.92,172.34 271.01,178.72 262.17,184.29 241.72,197.18 219.13,206.2 198.82,219.34 195.18,221.69 196.64,227.68 200.92,224.92 217.97,213.9 236.6,205.75 254.26,195.82 263.03,190.89 271.57,185.47 279.43,179.18 282.83,176.46 286.03,173.6 289.05,170.46 292.47,166.9 295.66,164.93 300.43,163.51 317.65,158.38 337.33,165.19 354.56,167.46 375.92,170.28 397.25,175.31 417.6,182.38 429.48,186.5 441.07,191.49 452.18,197.38 461.6,202.37 471.72,207.38 478.05,216.27 480.25,219.35 486.15,214.37 483.89,211.2 Z"
   id="path168" />
	</g>
</g></g></svg>
